<svg width="980" height="296" viewBox="0 0 980 296" fill="none" xmlns="http://www.w3.org/2000/svg">
<path d="M372.426 164.187L445.617 92.8205H371.647V63.6592H493.547V92.8205L421.404 164.187H494.34V193.348H372.44V164.187H372.426Z" fill="white"/>
<path d="M520.379 128.115C520.379 90.2618 542.779 60.3218 592.522 60.3218C642.264 60.3218 662.328 90.5121 662.328 126.835C662.328 130.673 662.074 133.997 661.55 136.556H557.109C559.19 161.628 572.217 171.599 593.57 171.599C611.538 171.599 621.436 163.673 625.344 152.673H661.805C657.642 174.923 639.149 195.907 592.522 195.907C540.429 195.907 520.379 164.187 520.379 128.115ZM626.122 115.335C624.82 95.8938 613.365 84.3795 593.046 84.3795C572.727 84.3795 560.493 95.129 557.619 115.335H626.122Z" fill="white"/>
<path d="M750.245 165.981L788.532 63.6592H824.469L774.458 193.348H724.715L674.973 63.6592H713.26L750.245 165.981Z" fill="white"/>
<path d="M837.113 128.115C837.113 90.2618 859.514 60.3218 909.256 60.3218C958.999 60.3218 979.063 90.5121 979.063 126.835C979.063 130.673 978.808 133.997 978.284 136.556H873.843C875.925 161.628 888.951 171.599 910.304 171.599C928.273 171.599 938.17 163.673 942.078 152.673H978.539C974.376 174.923 955.884 195.907 909.256 195.907C857.163 195.907 837.113 164.187 837.113 128.115ZM942.871 115.335C941.568 95.8938 930.113 84.3795 909.794 84.3795C889.475 84.3795 877.241 95.129 874.367 115.335H942.871Z" fill="white"/>
<path d="M505.774 225.607V263.281H497.6V225.607H505.774ZM498.026 212.456C499.069 211.461 500.324 210.963 501.794 210.963C503.263 210.963 504.495 211.461 505.49 212.456C506.532 213.404 507.054 214.612 507.054 216.081C507.054 217.551 506.556 218.759 505.561 219.707C504.518 220.702 503.263 221.2 501.794 221.2C500.324 221.2 499.069 220.726 498.026 219.778C496.983 218.783 496.462 217.551 496.462 216.081C496.462 214.66 496.983 213.451 498.026 212.456ZM513.832 225.607H522.006V230.583C524.897 226.839 528.807 224.967 533.735 224.967C538.048 224.967 541.744 226.365 544.825 229.161C547.952 231.91 549.516 235.582 549.516 240.179V263.281H541.341V242.383C541.341 239.397 540.441 237.028 538.64 235.274C536.887 233.473 534.707 232.573 532.1 232.573C529.115 232.573 526.674 233.663 524.779 235.843C522.931 237.975 522.006 240.653 522.006 243.875V263.281H513.832V225.607ZM553.215 225.607H561.958L572.336 258.59L582.715 225.607H591.458L579.09 263.281H565.655L553.215 225.607ZM599.464 230.654C603.255 226.863 607.804 224.967 613.112 224.967C617.851 224.967 621.974 226.507 625.48 229.587C629.035 232.62 631.215 236.435 632.02 241.032C632.305 242.169 632.447 243.307 632.447 244.444C632.447 245.439 632.328 246.434 632.091 247.43H601.809C602.283 250.226 603.563 252.453 605.648 254.112C607.78 255.77 610.268 256.6 613.112 256.6C617.472 256.6 620.955 255.036 623.561 251.908L630.812 253.827C629.295 256.86 626.855 259.301 623.49 261.149C620.173 262.95 616.713 263.85 613.112 263.85C607.662 263.85 603.065 261.955 599.321 258.163C595.625 254.372 593.777 249.799 593.777 244.444C593.777 239.042 595.672 234.445 599.464 230.654ZM601.809 241.174H624.13C623.656 238.663 622.4 236.554 620.362 234.848C618.372 233.094 615.931 232.218 613.041 232.218C610.15 232.218 607.686 233.094 605.648 234.848C603.61 236.554 602.331 238.663 601.809 241.174ZM637.443 236.34C637.443 232.786 638.888 230.014 641.779 228.024C644.67 225.986 648.366 224.967 652.868 224.967C658.223 224.967 663.08 226.27 667.44 228.877V236.767C661.943 233.592 657.086 232.004 652.868 232.004C650.783 232.004 649.077 232.407 647.75 233.213C646.47 233.971 645.831 234.99 645.831 236.269C645.831 236.696 645.902 237.099 646.044 237.478C646.233 237.81 646.518 238.118 646.897 238.402C647.323 238.686 647.726 238.923 648.105 239.113C648.532 239.302 649.124 239.516 649.882 239.753C650.641 239.942 651.28 240.108 651.802 240.25C652.323 240.345 653.081 240.511 654.076 240.748C655.119 240.985 655.948 241.174 656.564 241.316C660.924 242.359 664.076 243.828 666.019 245.724C668.009 247.619 669.028 249.941 669.075 252.69C669.075 255.249 668.27 257.405 666.658 259.159C665.094 260.912 663.223 262.144 661.043 262.855C658.863 263.518 656.47 263.85 653.863 263.85C648.508 263.85 643.295 262.215 638.225 258.945V250.628C639.931 252.098 642.276 253.472 645.262 254.751C648.247 256.031 651.115 256.671 653.863 256.671C655.711 256.671 657.299 256.315 658.626 255.604C660 254.846 660.687 253.851 660.687 252.619C660.687 251.339 659.905 250.297 658.341 249.491C656.778 248.638 654.337 247.88 651.02 247.216C646.376 246.269 642.94 244.965 640.712 243.307C638.533 241.601 637.443 239.279 637.443 236.34ZM672.205 232.715V225.607H679.313V216.579L687.346 214.233V225.607H698.932V232.715H687.346V251.055C687.346 253.377 688.009 254.822 689.336 255.391C690.71 255.96 691.942 256.244 693.032 256.244C694.738 256.244 696.8 255.865 699.217 255.107V262.997C696.658 263.708 694.312 264.063 692.179 264.063C689.383 264.063 686.54 263.258 683.649 261.647C680.758 259.988 679.313 256.481 679.313 251.126V232.715H672.205ZM714.168 225.607V263.281H705.994V225.607H714.168ZM706.42 212.456C707.463 211.461 708.718 210.963 710.188 210.963C711.657 210.963 712.889 211.461 713.884 212.456C714.926 213.404 715.448 214.612 715.448 216.081C715.448 217.551 714.95 218.759 713.955 219.707C712.912 220.702 711.657 221.2 710.188 221.2C708.718 221.2 707.463 220.726 706.42 219.778C705.377 218.783 704.856 217.551 704.856 216.081C704.856 214.66 705.377 213.451 706.42 212.456ZM722.439 225.607H730.614V230.44C733.315 226.791 736.798 224.967 741.063 224.967C743.527 224.967 745.802 225.583 747.887 226.815C750.02 228 751.702 229.753 752.934 232.075C754.309 229.848 756.133 228.118 758.408 226.886C760.73 225.607 763.147 224.967 765.658 224.967C769.497 224.967 772.814 226.341 775.61 229.09C778.406 231.791 779.804 235.487 779.804 240.179V263.281H771.629V242.169C771.629 239.136 770.966 236.767 769.639 235.061C768.312 233.308 766.44 232.431 764.023 232.431C761.322 232.431 759.213 233.331 757.697 235.132C756.228 236.933 755.399 239.208 755.209 241.956V263.281H747.034V242.169C747.034 239.136 746.371 236.767 745.044 235.061C743.717 233.308 741.869 232.431 739.499 232.431C736.561 232.431 734.334 233.45 732.817 235.487C731.348 237.525 730.614 240.061 730.614 243.094V263.281H722.439V225.607ZM791.128 230.654C794.919 226.863 799.468 224.967 804.776 224.967C809.515 224.967 813.638 226.507 817.145 229.587C820.699 232.62 822.879 236.435 823.684 241.032C823.969 242.169 824.111 243.307 824.111 244.444C824.111 245.439 823.992 246.434 823.755 247.43H793.473C793.947 250.226 795.227 252.453 797.312 254.112C799.445 255.77 801.933 256.6 804.776 256.6C809.136 256.6 812.619 255.036 815.225 251.908L822.476 253.827C820.959 256.86 818.519 259.301 815.154 261.149C811.837 262.95 808.377 263.85 804.776 263.85C799.326 263.85 794.729 261.955 790.986 258.163C787.289 254.372 785.441 249.799 785.441 244.444C785.441 239.042 787.337 234.445 791.128 230.654ZM793.473 241.174H815.794C815.32 238.663 814.064 236.554 812.027 234.848C810.036 233.094 807.596 232.218 804.705 232.218C801.814 232.218 799.35 233.094 797.312 234.848C795.274 236.554 793.995 238.663 793.473 241.174ZM829.755 225.607H837.93V230.583C840.82 226.839 844.73 224.967 849.658 224.967C853.971 224.967 857.667 226.365 860.748 229.161C863.875 231.91 865.439 235.582 865.439 240.179V263.281H857.265V242.383C857.265 239.397 856.364 237.028 854.563 235.274C852.81 233.473 850.63 232.573 848.024 232.573C845.038 232.573 842.597 233.663 840.702 235.843C838.854 237.975 837.93 240.653 837.93 243.875V263.281H829.755V225.607ZM869.422 232.715V225.607H876.531V216.579L884.563 214.233V225.607H896.15V232.715H884.563V251.055C884.563 253.377 885.227 254.822 886.554 255.391C887.928 255.96 889.16 256.244 890.25 256.244C891.956 256.244 894.017 255.865 896.434 255.107V262.997C893.875 263.708 891.529 264.063 889.397 264.063C886.601 264.063 883.758 263.258 880.867 261.647C877.976 259.988 876.531 256.481 876.531 251.126V232.715H869.422ZM905.732 230.654C909.524 226.863 914.097 224.967 919.452 224.967C924.807 224.967 929.356 226.886 933.1 230.725C936.891 234.516 938.787 239.065 938.787 244.373C938.787 249.728 936.891 254.325 933.1 258.163C929.309 261.955 924.759 263.85 919.452 263.85C914.097 263.85 909.524 261.955 905.732 258.163C901.941 254.325 900.046 249.728 900.046 244.373C900.046 239.018 901.941 234.445 905.732 230.654ZM907.723 244.373C907.723 247.643 908.86 250.463 911.135 252.832C913.41 255.202 916.182 256.386 919.452 256.386C922.674 256.386 925.423 255.202 927.698 252.832C929.972 250.463 931.11 247.643 931.11 244.373C931.11 241.103 929.972 238.307 927.698 235.985C925.47 233.616 922.722 232.431 919.452 232.431C916.182 232.431 913.41 233.616 911.135 235.985C908.86 238.307 907.723 241.103 907.723 244.373ZM943.717 236.34C943.717 232.786 945.162 230.014 948.053 228.024C950.943 225.986 954.64 224.967 959.142 224.967C964.497 224.967 969.354 226.27 973.714 228.877V236.767C968.217 233.592 963.36 232.004 959.142 232.004C957.057 232.004 955.351 232.407 954.024 233.213C952.744 233.971 952.104 234.99 952.104 236.269C952.104 236.696 952.176 237.099 952.318 237.478C952.507 237.81 952.792 238.118 953.171 238.402C953.597 238.686 954 238.923 954.379 239.113C954.806 239.302 955.398 239.516 956.156 239.753C956.915 239.942 957.554 240.108 958.076 240.25C958.597 240.345 959.355 240.511 960.35 240.748C961.393 240.985 962.222 241.174 962.838 241.316C967.198 242.359 970.349 243.828 972.292 245.724C974.283 247.619 975.302 249.941 975.349 252.69C975.349 255.249 974.543 257.405 972.932 259.159C971.368 260.912 969.496 262.144 967.317 262.855C965.137 263.518 962.743 263.85 960.137 263.85C954.782 263.85 949.569 262.215 944.498 258.945V250.628C946.204 252.098 948.55 253.472 951.536 254.751C954.521 256.031 957.388 256.671 960.137 256.671C961.985 256.671 963.573 256.315 964.9 255.604C966.274 254.846 966.961 253.851 966.961 252.619C966.961 251.339 966.179 250.297 964.615 249.491C963.051 248.638 960.611 247.88 957.294 247.216C952.649 246.269 949.214 244.965 946.986 243.307C944.806 241.601 943.717 239.279 943.717 236.34Z" fill="white"/>
<path d="M317.062 30.6997C325.615 43.6464 311.285 51.8928 301.685 61.7106C290.825 71.876 278.69 83.1817 268.042 93.1386C236.523 121.66 154.043 201.329 113.873 236.359C109.498 240.183 103.409 241.685 97.7876 240.058C97.7451 240.058 97.7026 240.03 97.6743 240.016C89.7166 238.027 82.1837 233.716 76.534 227.862C68.279 219.17 72.0313 210.479 72.895 197.755C74.934 179.176 77.9075 152.407 79.7624 135.539C80.2297 130.352 81.2067 124.928 79.72 119.922C76.2084 108.282 62.0347 110.855 51.9672 114.29C41.6874 117.28 27.4004 122.87 17.9135 124.261C5.46723 126.611 -2.98603 114.387 0.992806 103.846C3.15922 98.6732 8.63897 95.4887 16.2143 90.4408C22.7702 86.1299 29.3686 81.7911 36.0377 77.4107C56.3567 64.0885 76.6757 50.5995 96.6831 37.5833C102.489 33.9677 109.837 29.9905 117.441 30.2686C127.763 30.8527 138.595 36.9714 143.679 45.8019C148.705 56.5931 141.526 73.1554 139.034 84.8088C135.933 96.5734 132.776 108.616 129.618 120.631C127.126 130.56 123.218 142.617 124.294 149.014C124.861 155.55 132.139 160.153 138.383 157.441C142.815 155.577 146.227 151.419 149.527 147.79C166.348 128.711 193.747 97.6998 212.522 76.4094C225.677 61.4881 240.049 45.2178 253.684 29.7541C265.238 17.7113 272.658 3.37406 287.356 8.96435C294.605 11.6622 301.671 16.5989 307.83 21.3409C311.625 24.2751 314.939 27.5152 316.949 30.5051L317.077 30.6858L317.062 30.6997Z" fill="#0059FF"/>
</svg>
